# xmcd
#
# Track frame offsets: 
#        150
#        21537
#        37655
#        69347
#        84077
#        103380
#        119825
#        143732
#        157545
#        176357
#        192350
#
# Disc length: 2717 seconds
#
# Revision: 3
# Processed by: cddbd v1.5PL3 Copyright (c) Steve Scherf et al.
# Submitted via: ExactAudioCopy v0.95a3
#
DISCID=870a9b0b
DTITLE=Deanna Bogart - The Great Unknown
DYEAR=1998
DGENRE=
TTITLE0=SITTIN' ON A MOUNTAIN
TTITLE1=LOVE FUNK
TTITLE2=WRONG SIDE OF LOVE
TTITLE3=WON'T BE LONG
TTITLE4=LOVIN ME 
TTITLE5=O.K. I'LL PLAY THE BLUES
TTITLE6=LIFE OF THE PARTY
TTITLE7=BUT YOU KNOW
TTITLE8=THE GREAT UNKNOWN
TTITLE9=PEEPHOLE
TTITLE10=ADAM BOMB BOOGIE
EXTD=
EXTT0=
EXTT1=
EXTT2=
EXTT3=
EXTT4=
EXTT5=
EXTT6=
EXTT7=
EXTT8=
EXTT9=
EXTT10=
PLAYORDER=
